<svg width="64.091" height="65.0" viewBox="-7.045 -7.5 65.0 65.0" version="1.1" preserveAspectRatio="none" xmlns="http://www.w3.org/2000/svg" xmlns:xlink="http://www.w3.org/1999/xlink">
  <path d="M0.5,22.55 L17.65,22.55 L17.65,27.45 L0.5,27.45 Z" style="stroke:#404040; fill:url(#fb40404040c0c0c0);" />
  <path d="M17.65,10.3 L22.55,10.3 L22.55,39.7 L17.65,39.7 Z" style="stroke:#404040; fill:url(#fb40404040ffffff);" />
  <path d="M17.65,10.3 L22.55,10.3 L22.55,39.7 L17.65,39.7 Z" style="stroke:#404040; fill:none;" />
  <path d="M27.45,10.3 L32.35,10.3 L32.35,39.7 L27.45,39.7 Z" style="stroke:#404040; fill:url(#fb40404040ffffff);" />
  <path d="M27.45,10.3 L32.35,10.3 L32.35,39.7 L27.45,39.7 Z" style="stroke:#404040; fill:none;" />
  <path d="M32.35,22.55 L49.5,22.55 L49.5,27.45 L32.35,27.45 Z" style="stroke:#404040; fill:url(#fb40404040c0c0c0);" />
  <path d="M17.65,15.2 L10.3,12.75 L10.3,17.65 L17.65,15.2 Z" style="stroke:#00007f; fill:#00007f;" />
  <path d="M32.35,15.2 L39.7,12.75 L39.7,17.65 L32.35,15.2 Z" style="stroke:#00007f; fill:#00007f;" />
  <path d="M25.0,2.95 L47.05,7.85 L47.05,15.2 L32.35,15.2" style="stroke:#00007f; fill:none;" />
  <path d="M25.0,2.95 L2.95,7.85 L2.95,15.2 L17.65,15.2" style="stroke:#00007f; fill:none;" />
  <text x="25.0" y="47.05" dy=".33em" style="fill:#0000ff; text-anchor:middle; font-size:9.8px;">clutch3</text>
  <g class="Port">
    <metadata xmlns:vda="http://fat-ak30.eas.iis.fraunhofer.de/exchange/vda_meta">
      <vda:meta name="Name">clutch3.flange_a</vda:meta>
      <vda:meta name="X">0.5</vda:meta>
      <vda:meta name="Y">25.0</vda:meta>
    </metadata>
    <ellipse cx="0.5" cy="25.0" rx="2.45" ry="2.45" style="stroke:#000000; fill:#5f5f5f;" />
  </g>
  <g class="Port">
    <metadata xmlns:vda="http://fat-ak30.eas.iis.fraunhofer.de/exchange/vda_meta">
      <vda:meta name="Name">clutch3.flange_b</vda:meta>
      <vda:meta name="X">49.5</vda:meta>
      <vda:meta name="Y">25.0</vda:meta>
    </metadata>
    <ellipse cx="49.549" cy="25.0" rx="2.45" ry="2.45" style="stroke:#000000; fill:#ffffff;" />
  </g>
  <g class="Port">
    <metadata xmlns:vda="http://fat-ak30.eas.iis.fraunhofer.de/exchange/vda_meta">
      <vda:meta name="Name">clutch3.f_normalized</vda:meta>
      <vda:meta name="X">19.61</vda:meta>
      <vda:meta name="Y">-1.95</vda:meta>
    </metadata>
    <path d="M20.1,-6.85 L25.0,2.95 L29.9,-6.85 L20.1,-6.85 Z" style="stroke:#00007f; fill:#00007f;" />
  </g>
  <defs>
    <linearGradient id="fb40404040c0c0c0" x1="0%" y1="0%" x2="50%" y2="0%" spreadMethod="reflect" gradientTransform="rotate(90.0)">
      <stop offset="0%" stop-color="#404040" stop-opacity="1" />
      <stop offset="3%" stop-color="#5c5c5c" stop-opacity="1" />
      <stop offset="10%" stop-color="#787878" stop-opacity="1" />
      <stop offset="22%" stop-color="#909090" stop-opacity="1" />
      <stop offset="38%" stop-color="#a4a4a4" stop-opacity="1" />
      <stop offset="57%" stop-color="#b3b3b3" stop-opacity="1" />
      <stop offset="78%" stop-color="#bdbdbd" stop-opacity="1" />
      <stop offset="100%" stop-color="#c0c0c0" stop-opacity="1" />
    </linearGradient>
    <linearGradient id="fb40404040ffffff" x1="0%" y1="0%" x2="50%" y2="0%" spreadMethod="reflect" gradientTransform="rotate(90.0)">
      <stop offset="0%" stop-color="#404040" stop-opacity="1" />
      <stop offset="3%" stop-color="#6b6b6b" stop-opacity="1" />
      <stop offset="10%" stop-color="#939393" stop-opacity="1" />
      <stop offset="22%" stop-color="#b7b7b7" stop-opacity="1" />
      <stop offset="38%" stop-color="#d5d5d5" stop-opacity="1" />
      <stop offset="57%" stop-color="#ececec" stop-opacity="1" />
      <stop offset="78%" stop-color="#fafafa" stop-opacity="1" />
      <stop offset="100%" stop-color="#ffffff" stop-opacity="1" />
    </linearGradient>
  </defs>
</svg>
