<svg width="220.0" height="220.0" viewBox="-10.0 -10.0 220.0 220.0" version="1.1" preserveAspectRatio="none" xmlns="http://www.w3.org/2000/svg" xmlns:xlink="http://www.w3.org/1999/xlink">
  <path d="M159.7,100.0 L40.3,30.35 L40.3,169.65 L159.7,100.0 Z" style="stroke:#0000ff; fill:#ffffff;" />
  <path d="M10.45,50.25 L40.3,50.25" style="stroke:#0000ff; fill:none;" />
  <path d="M10.45,149.75 L40.3,149.75" style="stroke:#0000ff; fill:none;" />
  <path d="M159.7,100.0 L189.55,100.0" style="stroke:#0000ff; fill:none;" />
  <path d="M52.24,68.16 L72.14,68.16" style="stroke:#0000ff; fill:none;" />
  <path d="M61.195,119.9 L61.195,140.795" style="stroke:#0000ff; fill:none;" />
  <path d="M50.25,130.845 L72.14,130.845" style="stroke:#0000ff; fill:none;" />
  <text x="100.995" y="3.485" dy=".33em" style="fill:#0000ff; text-anchor:middle; font-size:39.8px;"></text>
  <g class="Port">
    <metadata xmlns:vda="http://fat-ak30.eas.iis.fraunhofer.de/exchange/vda_meta">
      <vda:meta name="Name">in_p</vda:meta>
      <vda:meta name="X">0.5</vda:meta>
      <vda:meta name="Y">149.75</vda:meta>
    </metadata>
    <path d="M-9.45,139.8 L10.45,139.8 L10.45,159.7 L-9.45,159.7 Z" style="stroke:#0000ff; fill:#0000ff;" />
  </g>
  <g class="Port">
    <metadata xmlns:vda="http://fat-ak30.eas.iis.fraunhofer.de/exchange/vda_meta">
      <vda:meta name="Name">in_n</vda:meta>
      <vda:meta name="X">0.5</vda:meta>
      <vda:meta name="Y">50.25</vda:meta>
    </metadata>
    <path d="M-9.45,40.3 L10.45,40.3 L10.45,60.2 L-9.45,60.2 Z" style="stroke:#0000ff; fill:#ffffff;" />
  </g>
  <g class="Port">
    <metadata xmlns:vda="http://fat-ak30.eas.iis.fraunhofer.de/exchange/vda_meta">
      <vda:meta name="Name">out</vda:meta>
      <vda:meta name="X">199.5</vda:meta>
      <vda:meta name="Y">100.0</vda:meta>
    </metadata>
    <path d="M189.55,90.05 L209.45,90.05 L209.45,109.95 L189.55,109.95 Z" style="stroke:#0000ff; fill:#0000ff;" />
  </g>
</svg>
