<svg width="550.0" height="550.0" viewBox="-25.0 -25.0 550.0 550.0" version="1.1" preserveAspectRatio="none" xmlns="http://www.w3.org/2000/svg" xmlns:xlink="http://www.w3.org/1999/xlink">
  <path d="M0.5,225.05 L125.25,225.05 L125.25,274.95 L0.5,274.95 Z" style="stroke:#404040; fill:url(#fb40404040c0c0c0);" />
  <path d="M374.75,225.05 L499.5,225.05 L499.5,274.95 L374.75,274.95 Z" style="stroke:#404040; fill:url(#fb40404040c0c0c0);" />
  <path d="M50.4,312.375 L100.3,312.375" style="stroke:#000000; fill:none;" />
  <path d="M399.7,312.375 L449.6,312.375" style="stroke:#000000; fill:none;" />
  <path d="M75.35,312.375 L75.35,424.65" style="stroke:#000000; fill:none;" />
  <path d="M424.65,312.375 L424.65,424.65" style="stroke:#000000; fill:none;" />
  <path d="M50.4,187.625 L100.3,187.625" style="stroke:#000000; fill:none;" />
  <path d="M399.7,187.625 L449.6,187.625" style="stroke:#000000; fill:none;" />
  <path d="M75.35,137.725 L75.35,187.625" style="stroke:#000000; fill:none;" />
  <path d="M424.65,137.725 L424.65,187.625" style="stroke:#000000; fill:none;" />
  <path d="M75.35,424.65 L424.65,424.65" style="stroke:#000000; fill:none;" />
  <path d="M125.25,150.2 Q125.25,125.25 150.2,125.25 Q250.0,125.25 349.8,125.25 Q374.75,125.25 374.75,150.2 Q374.75,250.0 374.75,349.8 Q374.75,374.75 349.8,374.75 Q250.0,374.75 150.2,374.75 Q125.25,374.75 125.25,349.8 Q125.25,250.0 125.25,150.2 Z" style="stroke:#404040; fill:url(#fb40404040ffffff);" />
  <text x="250.0" y="50.4" dy=".33em" style="fill:#0000ff; text-anchor:middle; font-size:99.8px;">J4</text>
  <text x="250.0" y="499.5" dy=".33em" style="fill:#000000; text-anchor:middle; font-size:99.8px;">J=1</text>
  <path d="M125.25,150.2 Q125.25,125.25 150.2,125.25 Q250.0,125.25 349.8,125.25 Q374.75,125.25 374.75,150.2 Q374.75,250.0 374.75,349.8 Q374.75,374.75 349.8,374.75 Q250.0,374.75 150.2,374.75 Q125.25,374.75 125.25,349.8 Q125.25,250.0 125.25,150.2 Z" style="stroke:#404040; fill:none;" />
  <g class="Port">
    <metadata xmlns:vda="http://fat-ak30.eas.iis.fraunhofer.de/exchange/vda_meta">
      <vda:meta name="Name">J4.flange_a</vda:meta>
      <vda:meta name="X">0.5</vda:meta>
      <vda:meta name="Y">250.0</vda:meta>
    </metadata>
    <ellipse cx="0.5" cy="250.0" rx="24.95" ry="24.95" style="stroke:#000000; fill:#5f5f5f;" />
  </g>
  <g class="Port">
    <metadata xmlns:vda="http://fat-ak30.eas.iis.fraunhofer.de/exchange/vda_meta">
      <vda:meta name="Name">J4.flange_b</vda:meta>
      <vda:meta name="X">499.5</vda:meta>
      <vda:meta name="Y">250.0</vda:meta>
    </metadata>
    <ellipse cx="499.999" cy="250.0" rx="24.95" ry="24.95" style="stroke:#000000; fill:#ffffff;" />
  </g>
  <defs>
    <linearGradient id="fb40404040c0c0c0" x1="0%" y1="0%" x2="50%" y2="0%" spreadMethod="reflect" gradientTransform="rotate(90.0)">
      <stop offset="0%" stop-color="#404040" stop-opacity="1" />
      <stop offset="3%" stop-color="#5c5c5c" stop-opacity="1" />
      <stop offset="10%" stop-color="#787878" stop-opacity="1" />
      <stop offset="22%" stop-color="#909090" stop-opacity="1" />
      <stop offset="38%" stop-color="#a4a4a4" stop-opacity="1" />
      <stop offset="57%" stop-color="#b3b3b3" stop-opacity="1" />
      <stop offset="78%" stop-color="#bdbdbd" stop-opacity="1" />
      <stop offset="100%" stop-color="#c0c0c0" stop-opacity="1" />
    </linearGradient>
    <linearGradient id="fb40404040ffffff" x1="0%" y1="0%" x2="50%" y2="0%" spreadMethod="reflect" gradientTransform="rotate(90.0)">
      <stop offset="0%" stop-color="#404040" stop-opacity="1" />
      <stop offset="3%" stop-color="#6b6b6b" stop-opacity="1" />
      <stop offset="10%" stop-color="#939393" stop-opacity="1" />
      <stop offset="22%" stop-color="#b7b7b7" stop-opacity="1" />
      <stop offset="38%" stop-color="#d5d5d5" stop-opacity="1" />
      <stop offset="57%" stop-color="#ececec" stop-opacity="1" />
      <stop offset="78%" stop-color="#fafafa" stop-opacity="1" />
      <stop offset="100%" stop-color="#ffffff" stop-opacity="1" />
    </linearGradient>
  </defs>
</svg>
