<?xml version="1.0" standalone="no"?>
<!DOCTYPE svg PUBLIC "-//W3C//DTD SVG 1.1//EN" "http://www.w3.org/Graphics/SVG/1.1/DTD/svg11.dtd">
<svg width="924" height="560" version="1.1" xmlns="http://www.w3.org/2000/svg" xmlns:xlink="http://www.w3.org/1999/xlink">
	<polyline fill="none" stroke="rgb(160,160,164)" stroke-opacity="1" points="110.000000,115.000000 190.000000,115.000000"/>
	<polygon fill="rgb(160,160,164)" stroke="rgb(160,160,164)" stroke-opacity="1" points="158.000000,105.400000 190.000000,115.000000 158.000000,124.600000 158.000000,105.400000"/>
	<polyline fill="none" stroke="rgb(160,160,164)" stroke-opacity="1" points="750.000000,115.000000 830.000000,115.000000"/>
	<polyline fill="none" stroke="rgb(160,160,164)" stroke-opacity="1" points="62.000000,179.000000 94.000000,179.000000"/>
	<polyline fill="none" stroke="rgb(160,160,164)" stroke-opacity="1" points="78.000000,195.000000 78.000000,163.000000"/>
	<text x="142" y="67" fill="rgb(160,160,164)" dominant-baseline="central" font-size="64" font-family="Arial" text-anchor="middle">i</text>
	<polygon fill="rgb(160,160,164)" stroke="rgb(160,160,164)" stroke-opacity="1" points="798.000000,105.400000 830.000000,115.000000 798.000000,124.600000 798.000000,105.400000"/>
	<polyline fill="none" stroke="rgb(160,160,164)" stroke-opacity="1" points="830.000000,179.000000 862.000000,179.000000"/>
	<text x="782" y="67" fill="rgb(160,160,164)" dominant-baseline="central" font-size="64" font-family="Arial" text-anchor="middle">i</text>
	<rect fill="none" stroke="rgb(0,0,255)" stroke-opacity="1" x="238" y="83" width="448" height="192"/>
	<polyline fill="none" stroke="rgb(0,0,255)" stroke-opacity="1" points="154.800000,179.000000 238.000000,179.000000"/>
	<polyline fill="none" stroke="rgb(0,0,255)" stroke-opacity="1" points="686.000000,179.000000 769.200000,179.000000"/>
	<rect fill="rgb(0,0,255)" stroke="rgb(0,0,255)" stroke-opacity="1" x="129.2" y="166.2" width="25.6" height="25.6"/>
	<text x="122.8" y="153.4" fill="rgb(0,0,255)" dominant-baseline="central" font-size="19" font-family="Arial" text-anchor="middle">p</text>
	<rect fill="rgb(255,255,255)" stroke="rgb(0,0,255)" stroke-opacity="1" x="769.2" y="166.2" width="25.6" height="25.6"/>
	<text x="762.8" y="153.4" fill="rgb(0,0,255)" dominant-baseline="central" transform="rotate(-360 762.8,153.4)" font-size="19" font-family="Arial" text-anchor="middle">n</text>
	<rect fill="rgb(191,0,0)" stroke="rgb(191,0,0)" stroke-opacity="1" x="446" y="483" width="32" height="32"/>
	<text x="458.8" y="470.2" fill="rgb(191,0,0)" dominant-baseline="central" font-size="18" font-family="Arial" text-anchor="middle">heatPort</text>
</svg>
