<?xml version="1.0"?>
<svg width="240" height="240" xmlns="http://www.w3.org/2000/svg" xmlns:svg="http://www.w3.org/2000/svg" preserveAspectRatio="none">
 <g>
  <title>Layer 1</title>
  <path stroke-width="4" id="svg_1" stroke="#00007f" fill="#ffffff" d="m0.5,0.5l199,0l0,199l-199,0l0,-199z"/>
  <text stroke-width="4" id="svg_2" fill="#0000ff" text-anchor="middle" font-size="39.8px" y="-29.35" x="100"/>
  <path stroke-width="4" id="svg_3" stroke="#c0c0c0" fill="none" d="m20.4,32.34l0,147.26"/>
  <path stroke-width="4" id="svg_4" stroke="#c0c0c0" fill="#c0c0c0" d="m20.4,10.45l-7.96,21.89l15.92,0l-7.96,-21.89z"/>
  <path stroke-width="4" id="svg_5" stroke="#c0c0c0" fill="none" d="m10.45,100l157.21,0"/>
  <path stroke-width="4" id="svg_6" stroke="#c0c0c0" fill="#c0c0c0" d="m189.55,100l-21.89,-7.96l0,15.92l21.89,-7.96z"/>
  <path stroke-width="4" id="svg_7" stroke="#000000" fill="none" d="m20.4,100l5.622,-17.014q5.622,-17.015 9.204,-26.418q3.582,-9.402 6.766,-16.019q3.184,-6.617 6.019,-10.696q2.836,-4.08 5.622,-6.319q2.786,-2.238 5.572,-2.587q2.786,-0.348 5.572,1.244q2.786,1.592 5.622,5.025q2.836,3.433 5.622,8.557q2.786,5.124 5.97,12.736q3.184,7.612 7.198,19.004q4.015,11.393 12.438,37.263q8.423,25.87 12.005,35.522q3.582,9.651 6.766,16.616q3.184,6.965 5.97,11.393q2.786,4.428 5.621,7.064q2.836,2.637 5.622,3.433q2.786,0.796 5.572,-0.398q2.786,-1.194 5.622,-4.229q2.836,-3.035 5.622,-7.81q2.786,-4.776 5.97,-12.09q3.184,-7.313 7.213,-18.457q4.03,-11.144 8.01,-23.482l3.98,-12.338"/>
  <text stroke-width="4" id="svg_8" fill="#000000" text-anchor="middle" font-size="39.8px" y="231.34" x="102.985">freqHz=1</text>
  <g id="svg_9" class="Port">
   <metadata stroke-width="4">y209.45100.0</metadata>
   <path stroke-width="4" id="svg_10" stroke="#00007f" fill="#ffffff" d="m199.5,90.05l19.9,9.95l-19.9,9.95l0,-19.9z"/>
  </g>
 </g>
</svg>