<svg width="70.0" height="68.333" viewBox="-10.0 -9.167 68.333 68.333" version="1.1" preserveAspectRatio="none" xmlns="http://www.w3.org/2000/svg" xmlns:xlink="http://www.w3.org/1999/xlink">
  <path d="M12.75,54.4 L17.65,49.5" style="stroke:#000000; fill:none;" />
  <path d="M17.65,54.4 L22.55,49.5" style="stroke:#000000; fill:none;" />
  <path d="M22.55,54.4 L27.45,49.5" style="stroke:#000000; fill:none;" />
  <path d="M27.45,54.4 L32.35,49.5" style="stroke:#000000; fill:none;" />
  <path d="M17.65,49.5 L32.35,49.5" style="stroke:#000000; fill:none;" />
  <text x="25.0" y="2.95" dy=".33em" style="fill:#0000ff; text-anchor:middle; font-size:9.8px;">torque</text>
  <text x="0.133" y="37.128" dy=".33em" style="fill:#000000; text-anchor:middle; font-size:10.045px;">tau</text>
  <path d="M3.44,25.0 L6.38,21.325 Q9.32,17.65 12.75,14.955 Q16.18,12.26 20.345,11.035 Q24.51,9.81 28.185,10.545 Q31.86,11.28 34.31,12.75 Q36.76,14.22 38.72,16.18 Q40.68,18.14 42.15,19.855 Q43.62,21.57 44.845,23.285 L46.07,25.0" style="stroke:#000000; fill:none;" />
  <path d="M46.07,25.0 L41.17,10.79 L34.065,18.385 L46.07,25.0 Z" style="stroke:#000000; fill:#000000;" />
  <path d="M17.65,32.35 L32.35,32.35" style="stroke:#000000; fill:none;" />
  <path d="M25.0,32.35 L25.0,49.745" style="stroke:#000000; fill:none;" />
  <path d="M17.65,37.25 L22.55,32.35" style="stroke:#000000; fill:none;" />
  <path d="M22.55,37.25 L27.45,32.35" style="stroke:#000000; fill:none;" />
  <path d="M27.45,37.25 L32.35,32.35" style="stroke:#000000; fill:none;" />
  <path d="M11.77,35.29 L13.73,33.575 Q15.69,31.86 18.385,30.39 Q21.08,28.92 23.53,28.675 Q25.98,28.43 28.185,28.92 Q30.39,29.41 32.105,30.39 Q33.82,31.37 35.29,32.595 Q36.76,33.82 37.74,35.045 Q38.72,36.27 39.7,37.74 L40.68,39.21" style="stroke:#000000; fill:none;" />
  <path d="M10.055,41.17 L14.22,35.29 L10.79,33.82 L10.055,41.17 Z" style="stroke:#000000; fill:#000000;" />
  <g class="Port">
    <metadata xmlns:vda="http://fat-ak30.eas.iis.fraunhofer.de/exchange/vda_meta">
      <vda:meta name="Name">torque.flange</vda:meta>
      <vda:meta name="X">49.5</vda:meta>
      <vda:meta name="Y">25.0</vda:meta>
    </metadata>
    <ellipse cx="49.549" cy="25.0" rx="2.45" ry="2.45" style="stroke:#000000; fill:#ffffff;" />
  </g>
  <g class="Port">
    <metadata xmlns:vda="http://fat-ak30.eas.iis.fraunhofer.de/exchange/vda_meta">
      <vda:meta name="Name">torque.support</vda:meta>
      <vda:meta name="X">25.0</vda:meta>
      <vda:meta name="Y">49.5</vda:meta>
    </metadata>
    <ellipse cx="25.0" cy="49.5" rx="2.45" ry="2.45" style="stroke:#000000; fill:#5f5f5f;" />
    <path d="M21.325,45.825 L28.675,45.825 L28.675,53.175 L21.325,53.175 Z" style="stroke:#c0c0c0; fill:#c0c0c0;" />
    <ellipse cx="25.0" cy="49.5" rx="2.45" ry="2.45" style="stroke:#000000; fill:#5f5f5f;" />
  </g>
  <g class="Port">
    <metadata xmlns:vda="http://fat-ak30.eas.iis.fraunhofer.de/exchange/vda_meta">
      <vda:meta name="Name">torque.tau</vda:meta>
      <vda:meta name="X">-4.4</vda:meta>
      <vda:meta name="Y">25.0</vda:meta>
    </metadata>
    <path d="M-9.3,20.1 L0.5,25.0 L-9.3,29.9 L-9.3,20.1 Z" style="stroke:#00007f; fill:#00007f;" />
  </g>
</svg>
