<svg width="280.0" height="273.333" viewBox="-40.0 -36.667 273.333 273.333" version="1.1" preserveAspectRatio="none" xmlns="http://www.w3.org/2000/svg" xmlns:xlink="http://www.w3.org/1999/xlink">
  <path d="M50.25,219.4 L70.15,199.5" style="stroke:#000000; fill:none;" />
  <path d="M70.15,219.4 L90.05,199.5" style="stroke:#000000; fill:none;" />
  <path d="M90.05,219.4 L109.95,199.5" style="stroke:#000000; fill:none;" />
  <path d="M109.95,219.4 L129.85,199.5" style="stroke:#000000; fill:none;" />
  <path d="M70.15,199.5 L129.85,199.5" style="stroke:#000000; fill:none;" />
  <text x="100.0" y="10.45" dy=".33em" style="fill:#0000ff; text-anchor:middle; font-size:39.8px;"></text>
  <text x="-0.992" y="149.253" dy=".33em" style="fill:#000000; text-anchor:middle; font-size:40.795px;">tau</text>
  <path d="M12.44,100.0 L24.38,85.075 Q36.32,70.15 50.25,59.205 Q64.18,48.26 81.095,43.285 Q98.01,38.31 112.935,41.295 Q127.86,44.28 137.81,50.25 Q147.76,56.22 155.72,64.18 Q163.68,72.14 169.65,79.105 Q175.62,86.07 180.595,93.035 L185.57,100.0" style="stroke:#000000; fill:none;" />
  <path d="M185.57,100.0 L165.67,42.29 L136.815,73.135 L185.57,100.0 Z" style="stroke:#000000; fill:#000000;" />
  <path d="M70.15,129.85 L129.85,129.85" style="stroke:#000000; fill:none;" />
  <path d="M100.0,129.85 L100.0,200.495" style="stroke:#000000; fill:none;" />
  <path d="M70.15,149.75 L90.05,129.85" style="stroke:#000000; fill:none;" />
  <path d="M90.05,149.75 L109.95,129.85" style="stroke:#000000; fill:none;" />
  <path d="M109.95,149.75 L129.85,129.85" style="stroke:#000000; fill:none;" />
  <path d="M46.27,141.79 L54.23,134.825 Q62.19,127.86 73.135,121.89 Q84.08,115.92 94.03,114.925 Q103.98,113.93 112.935,115.92 Q121.89,117.91 128.855,121.89 Q135.82,125.87 141.79,130.845 Q147.76,135.82 151.74,140.795 Q155.72,145.77 159.7,151.74 L163.68,157.71" style="stroke:#000000; fill:none;" />
  <path d="M39.305,165.67 L56.22,141.79 L42.29,135.82 L39.305,165.67 Z" style="stroke:#000000; fill:#000000;" />
  <g class="Port">
    <metadata xmlns:vda="http://fat-ak30.eas.iis.fraunhofer.de/exchange/vda_meta">
      <vda:meta name="Name">flange</vda:meta>
      <vda:meta name="X">199.5</vda:meta>
      <vda:meta name="Y">100.0</vda:meta>
    </metadata>
    <ellipse cx="199.699" cy="100.0" rx="9.95" ry="9.95" style="stroke:#000000; fill:#ffffff;" />
  </g>
  <g class="Port">
    <metadata xmlns:vda="http://fat-ak30.eas.iis.fraunhofer.de/exchange/vda_meta">
      <vda:meta name="Name">tau</vda:meta>
      <vda:meta name="X">-19.4</vda:meta>
      <vda:meta name="Y">100.0</vda:meta>
    </metadata>
    <path d="M-39.3,80.1 L0.5,100.0 L-39.3,119.9 L-39.3,80.1 Z" style="stroke:#00007f; fill:#00007f;" />
  </g>
</svg>
