<svg width="220.0" height="220.0" viewBox="-10.0 -10.0 220.0 220.0" version="1.1" preserveAspectRatio="none" xmlns="http://www.w3.org/2000/svg" xmlns:xlink="http://www.w3.org/1999/xlink">
  <path d="M0.5,90.05 L50.25,90.05 L50.25,109.95 L0.5,109.95 Z" style="stroke:#404040; fill:url(#fb40404040c0c0c0);" />
  <path d="M149.75,90.05 L199.5,90.05 L199.5,109.95 L149.75,109.95 Z" style="stroke:#404040; fill:url(#fb40404040c0c0c0);" />
  <path d="M20.4,124.875 L40.3,124.875" style="stroke:#000000; fill:none;" />
  <path d="M159.7,124.875 L179.6,124.875" style="stroke:#000000; fill:none;" />
  <path d="M30.35,124.875 L30.35,169.65" style="stroke:#000000; fill:none;" />
  <path d="M169.65,124.875 L169.65,169.65" style="stroke:#000000; fill:none;" />
  <path d="M20.4,75.125 L40.3,75.125" style="stroke:#000000; fill:none;" />
  <path d="M159.7,75.125 L179.6,75.125" style="stroke:#000000; fill:none;" />
  <path d="M30.35,55.225 L30.35,75.125" style="stroke:#000000; fill:none;" />
  <path d="M169.65,55.225 L169.65,75.125" style="stroke:#000000; fill:none;" />
  <path d="M30.35,169.65 L169.65,169.65" style="stroke:#000000; fill:none;" />
  <path d="M50.25,60.2 Q50.25,50.25 60.2,50.25 Q100.0,50.25 139.8,50.25 Q149.75,50.25 149.75,60.2 Q149.75,100.0 149.75,139.8 Q149.75,149.75 139.8,149.75 Q100.0,149.75 60.2,149.75 Q50.25,149.75 50.25,139.8 Q50.25,100.0 50.25,60.2 Z" style="stroke:#404040; fill:url(#fb40404040ffffff);" />
  <text x="100.0" y="20.4" dy=".33em" style="fill:#0000ff; text-anchor:middle; font-size:39.8px;"></text>
  <text x="100.0" y="199.5" dy=".33em" style="fill:#000000; text-anchor:middle; font-size:39.8px;">J=1</text>
  <path d="M50.25,60.2 Q50.25,50.25 60.2,50.25 Q100.0,50.25 139.8,50.25 Q149.75,50.25 149.75,60.2 Q149.75,100.0 149.75,139.8 Q149.75,149.75 139.8,149.75 Q100.0,149.75 60.2,149.75 Q50.25,149.75 50.25,139.8 Q50.25,100.0 50.25,60.2 Z" style="stroke:#404040; fill:none;" />
  <g class="Port">
    <metadata xmlns:vda="http://fat-ak30.eas.iis.fraunhofer.de/exchange/vda_meta">
      <vda:meta name="Name">flange_a</vda:meta>
      <vda:meta name="X">0.5</vda:meta>
      <vda:meta name="Y">100.0</vda:meta>
    </metadata>
    <ellipse cx="0.5" cy="100.0" rx="9.95" ry="9.95" style="stroke:#000000; fill:#5f5f5f;" />
  </g>
  <g class="Port">
    <metadata xmlns:vda="http://fat-ak30.eas.iis.fraunhofer.de/exchange/vda_meta">
      <vda:meta name="Name">flange_b</vda:meta>
      <vda:meta name="X">199.5</vda:meta>
      <vda:meta name="Y">100.0</vda:meta>
    </metadata>
    <ellipse cx="199.699" cy="100.0" rx="9.95" ry="9.95" style="stroke:#000000; fill:#ffffff;" />
  </g>
  <defs>
    <linearGradient id="fb40404040c0c0c0" x1="0%" y1="0%" x2="50%" y2="0%" spreadMethod="reflect" gradientTransform="rotate(90.0)">
      <stop offset="0%" stop-color="#404040" stop-opacity="1" />
      <stop offset="3%" stop-color="#5c5c5c" stop-opacity="1" />
      <stop offset="10%" stop-color="#787878" stop-opacity="1" />
      <stop offset="22%" stop-color="#909090" stop-opacity="1" />
      <stop offset="38%" stop-color="#a4a4a4" stop-opacity="1" />
      <stop offset="57%" stop-color="#b3b3b3" stop-opacity="1" />
      <stop offset="78%" stop-color="#bdbdbd" stop-opacity="1" />
      <stop offset="100%" stop-color="#c0c0c0" stop-opacity="1" />
    </linearGradient>
    <linearGradient id="fb40404040ffffff" x1="0%" y1="0%" x2="50%" y2="0%" spreadMethod="reflect" gradientTransform="rotate(90.0)">
      <stop offset="0%" stop-color="#404040" stop-opacity="1" />
      <stop offset="3%" stop-color="#6b6b6b" stop-opacity="1" />
      <stop offset="10%" stop-color="#939393" stop-opacity="1" />
      <stop offset="22%" stop-color="#b7b7b7" stop-opacity="1" />
      <stop offset="38%" stop-color="#d5d5d5" stop-opacity="1" />
      <stop offset="57%" stop-color="#ececec" stop-opacity="1" />
      <stop offset="78%" stop-color="#fafafa" stop-opacity="1" />
      <stop offset="100%" stop-color="#ffffff" stop-opacity="1" />
    </linearGradient>
  </defs>
</svg>
